<?xml version="1.0" encoding="utf-8"?>
<!-- Generator: Adobe Illustrator 16.0.0, SVG Export Plug-In . SVG Version: 6.00 Build 0)  -->
<!DOCTYPE svg PUBLIC "-//W3C//DTD SVG 1.1//EN" "http://www.w3.org/Graphics/SVG/1.1/DTD/svg11.dtd">
<svg version="1.1" id="Layer_1" xmlns="http://www.w3.org/2000/svg" xmlns:xlink="http://www.w3.org/1999/xlink" x="0px" y="0px"
	 width="315.52px" height="273.068px" viewBox="0 0 315.52 273.068" enable-background="new 0 0 315.52 273.068"
	 xml:space="preserve">
<g>
	<g>
		<g>
			<polygon fill="#C5A067" points="186.7,273.068 0,272.979 0,49.785 304.938,49.785 304.938,161.802 280.045,161.802 
				280.045,70.971 24.893,71.195 24.893,248.204 186.7,248.176 			"/>
		</g>
		<g>
			<path fill="#C5A067" d="M0,0v74.679h304.938V0H0z M49.785,49.785H24.893V24.893h24.894L49.785,49.785L49.785,49.785z
				 M87.13,49.785H62.237V24.893H87.13V49.785z M124.463,49.785H99.57V24.893h24.894V49.785z"/>
		</g>
	</g>
	<polygon fill="#C5A067" points="228.681,270.717 195.928,229.005 215.501,213.631 232.869,235.746 300.134,182.825 315.52,202.383 
			"/>
</g>
</svg>
