<?xml version="1.0" encoding="utf-8"?>
<!-- Generator: Adobe Illustrator 16.0.0, SVG Export Plug-In . SVG Version: 6.00 Build 0)  -->
<!DOCTYPE svg PUBLIC "-//W3C//DTD SVG 1.1//EN" "http://www.w3.org/Graphics/SVG/1.1/DTD/svg11.dtd">
<svg version="1.1" id="Layer_1" xmlns="http://www.w3.org/2000/svg" xmlns:xlink="http://www.w3.org/1999/xlink" x="0px" y="0px"
	 width="359.518px" height="291.617px" viewBox="0 0 359.518 291.617" enable-background="new 0 0 359.518 291.617"
	 xml:space="preserve">
<g>
	<g transform="translate(5.000000, 13.000000)">
		<path fill="#C5A067" d="M280.402,64.099c40.576,28.263,66.884,62.607,68.725,65.044l5.392,7.138l-5.362,7.174
			c-3.162,4.227-78.479,103.5-174.395,103.5c-22.474,0-43.818-5.449-63.365-13.853l18.396-18.399
			c14.293,5.226,29.402,8.424,44.969,8.424c70.197,0,130.922-64.793,149.494-86.76c-9.977-11.659-32.028-35.43-61.11-55.017
			L280.402,64.099z M259.607,50.995c-24.972-14.061-53.831-24.346-84.848-24.346c-95.88,0-171.198,98.31-174.361,102.493L-5,136.28
			l5.366,7.173c2.124,2.84,36.828,48.592,88.47,78.307l17.61-17.61c-38.919-20.901-69.041-53.479-81.177-67.797
			c18.603-21.794,79.305-85.874,149.492-85.874c23.906,0,46.735,7.468,67.187,18.178L259.607,50.995z M133.724,176.878
			c-10.11-10.352-16.346-24.498-16.346-40.08c0-31.642,25.736-57.375,57.381-57.375c15.577,0,29.729,6.239,40.073,16.346
			L133.724,176.878z M154.142,190.355c6.4,2.473,13.354,3.831,20.619,3.831c31.642,0,57.382-25.74,57.382-57.39
			c0-7.259-1.358-14.217-3.832-20.614L154.142,190.355z"/>
		<polygon fill="#C5A067" points="290.25,-13 307.199,3.949 32.528,278.617 15.579,261.667 		"/>
	</g>
</g>
</svg>
