<?xml version="1.0" encoding="utf-8"?>
<!-- Generator: Adobe Illustrator 16.0.0, SVG Export Plug-In . SVG Version: 6.00 Build 0)  -->
<!DOCTYPE svg PUBLIC "-//W3C//DTD SVG 1.1//EN" "http://www.w3.org/Graphics/SVG/1.1/DTD/svg11.dtd">
<svg version="1.1" id="Layer_1" xmlns="http://www.w3.org/2000/svg" xmlns:xlink="http://www.w3.org/1999/xlink" x="0px" y="0px"
	 width="184.384px" height="351.588px" viewBox="0 0 184.384 351.588" enable-background="new 0 0 184.384 351.588"
	 xml:space="preserve">
<g>
	<path fill="#010101" d="M29.306,350.76c1.25,0.414,2.922,0.828,4.18,0.828c4.188,0,8.367-2.094,10.883-6.273l138.129-230.21
		c2.516-3.766,2.516-8.789,0-12.555c-2.094-3.766-6.281-6.281-10.891-6.281h-47.705l18.001-81.206c0.828-3.766,0-7.531-2.516-10.454
		C137.293,1.672,133.526,0,129.761,0H12.555C5.445,0,0,5.438,0,12.555v171.606c0,7.125,5.445,12.563,12.555,12.563h31.392
		L20.93,336.946C20.087,342.806,23.445,348.666,29.306,350.76z M25.117,171.614V25.11h89.159l-17.579,79.111
		c-0.422,0.836-0.422,2.094-0.422,3.344c0,0.422,0,0.844,0,1.266c0,7.109,5.438,12.548,12.548,12.548h40.61L56.509,276.664
		l14.649-90.409c0.414-3.766-0.422-7.531-2.93-10.039c-2.516-2.93-5.859-4.602-9.626-4.602H25.117z"/>
</g>
</svg>
