<?xml version="1.0" encoding="utf-8"?>
<!-- Generator: Adobe Illustrator 16.0.0, SVG Export Plug-In . SVG Version: 6.00 Build 0)  -->
<!DOCTYPE svg PUBLIC "-//W3C//DTD SVG 1.1//EN" "http://www.w3.org/Graphics/SVG/1.1/DTD/svg11.dtd">
<svg version="1.1" id="Layer_1" xmlns="http://www.w3.org/2000/svg" xmlns:xlink="http://www.w3.org/1999/xlink" x="0px" y="0px"
	 width="23.907px" height="45.588px" viewBox="0 0 23.907 45.588" enable-background="new 0 0 23.907 45.588" xml:space="preserve">
<g>
	<path fill="#c5a067" d="M3.799,45.48c0.163,0.054,0.38,0.107,0.542,0.107c0.543,0,1.085-0.271,1.411-0.813l17.91-29.85
		c0.326-0.488,0.326-1.14,0-1.628c-0.271-0.488-0.814-0.814-1.411-0.814h-6.187l2.334-10.529c0.107-0.488,0-0.977-0.326-1.355
		C17.801,0.217,17.313,0,16.825,0H1.628C0.706,0,0,0.705,0,1.628v22.251c0,0.924,0.706,1.629,1.628,1.629h4.07L2.714,43.689
		C2.605,44.449,3.04,45.209,3.799,45.48z M3.256,22.252V3.256h11.561l-2.279,10.258c-0.055,0.108-0.055,0.271-0.055,0.434
		c0,0.055,0,0.109,0,0.164c0,0.922,0.705,1.627,1.628,1.627h5.265L7.327,35.873l1.9-11.723c0.054-0.488-0.055-0.977-0.38-1.302
		c-0.326-0.38-0.76-0.597-1.249-0.597H3.256z"/>
</g>
</svg>
