<?xml version="1.0" encoding="utf-8"?>
<!-- Generator: Adobe Illustrator 16.0.0, SVG Export Plug-In . SVG Version: 6.00 Build 0)  -->
<!DOCTYPE svg PUBLIC "-//W3C//DTD SVG 1.1//EN" "http://www.w3.org/Graphics/SVG/1.1/DTD/svg11.dtd">
<svg version="1.1" id="Layer_1" xmlns="http://www.w3.org/2000/svg" xmlns:xlink="http://www.w3.org/1999/xlink" x="0px" y="0px"
	 width="90.854px" height="56.832px" viewBox="0 0 90.854 56.832" enable-background="new 0 0 90.854 56.832" xml:space="preserve">
<path fill="#c5a067" d="M84.991,0.485c-2.258-0.753-4.839-0.646-6.883,0.43l-22.042,9.463l-21.83-5.162
	c-0.86-0.215-1.72-0.107-2.473,0.323l-5.054,2.474c-1.291,0.645-2.15,1.936-2.15,3.44c0,1.506,0.86,2.796,2.15,3.333L38,19.948
	l-17.528,8.926c-0.107,0.107-0.322,0.107-0.43,0L6.385,24.142c-1.183-0.43-2.473-0.322-3.656,0.216
	c-1.505,0.753-2.473,2.042-2.688,3.656c-0.216,1.612,0.43,3.226,1.613,4.302l13.333,11.182c1.076,0.861,2.474,1.076,3.764,0.646
	l26.883-9.894l-5.054,16.345c-0.538,1.828,0,3.871,1.505,5.054c0.86,0.754,2.043,1.184,3.118,1.184c0.754,0,1.398-0.217,2.151-0.538
	l4.195-2.043c0.967-0.43,1.827-1.29,2.256-2.258l12.045-25.377l19.893-9.355c2.152-1.076,3.872-2.904,4.625-5.271
	c0.753-2.258,0.646-4.839-0.429-6.989C89.078,2.958,87.249,1.237,84.991,0.485z M87.572,11.022
	c-0.538,1.506-1.612,2.689-3.011,3.334l-20.431,9.57c-0.323,0.107-0.646,0.431-0.755,0.753L51.012,50.702
	c-0.108,0.322-0.429,0.646-0.754,0.753l-4.193,2.043c-0.86,0.43-1.613-0.106-1.72-0.215c-0.215-0.216-0.753-0.752-0.538-1.721
	l6.021-19.464c0.217-0.537,0-1.182-0.43-1.612c-0.321-0.322-0.752-0.431-1.076-0.431c-0.215,0-0.321,0-0.538,0.108L17.783,41.132
	c-0.215,0.107-0.43,0-0.538-0.107L4.019,29.841c-0.43-0.322-0.645-0.859-0.537-1.398c0.107-0.537,0.429-0.967,0.86-1.182
	c0.322-0.216,0.752-0.216,1.182-0.108l13.657,4.731c0.969,0.322,2.043,0.215,2.903-0.215l20.431-10.431
	c0.538-0.322,0.861-0.86,0.861-1.505c0-0.646-0.43-1.184-0.968-1.398l-14.41-6.56c-0.322-0.107-0.322-0.322-0.322-0.429
	c0-0.109,0-0.324,0.322-0.539l5.054-2.473c0.108-0.107,0.216-0.107,0.323,0l22.367,5.27c0.323,0.107,0.645,0,0.968-0.109
	l22.583-9.784c1.397-0.646,3.011-0.753,4.516-0.323c1.505,0.537,2.688,1.613,3.44,3.012C88.002,8.013,88.11,9.518,87.572,11.022z"/>
</svg>
