<?xml version="1.0" encoding="utf-8"?>
<!-- Generator: Adobe Illustrator 16.0.0, SVG Export Plug-In . SVG Version: 6.00 Build 0)  -->
<!DOCTYPE svg PUBLIC "-//W3C//DTD SVG 1.1//EN" "http://www.w3.org/Graphics/SVG/1.1/DTD/svg11.dtd">
<svg version="1.1" id="Layer_1" xmlns="http://www.w3.org/2000/svg" xmlns:xlink="http://www.w3.org/1999/xlink" x="0px" y="0px"
	 width="196.352px" height="197.043px" viewBox="0 0 196.352 197.043" enable-background="new 0 0 196.352 197.043"
	 xml:space="preserve">
<path fill="#c5a067" d="M98.177,0C44.094,0,0,44.091,0,98.521s44.094,98.521,98.177,98.521c54.083,0,98.174-44.091,98.174-98.521
	S152.261,0,98.177,0z M89.564,24.112v38.24H59.25C65.795,46.85,76.129,33.417,89.564,24.112z M62.349,25.836
	c-9.298,10.681-16.535,23.078-21.357,36.517H25.836C33.758,46.502,46.505,33.417,62.349,25.836z M17.223,98.521
	c0-6.546,0.688-13.092,2.411-18.943H36.86c-1.035,6.546-1.723,12.745-1.723,19.632c0,6.204,0.688,12.403,1.376,18.602H19.634
	C17.911,111.613,17.223,105.067,17.223,98.521z M25.836,134.697h14.812c4.479,13.432,11.369,25.488,20.669,36.169
	C45.814,162.944,33.414,150.193,25.836,134.697z M89.564,173.277c-13.78-9.305-24.113-22.736-30.659-38.239h30.659V173.277z
	 M89.908,117.471h-0.344H54.083c-1.032-5.857-1.724-12.057-1.724-18.603c0-6.545,0.691-13.091,2.067-19.637h35.481V117.471z
	 M106.793,24.112c13.433,9.305,23.766,22.737,30.312,38.24h-30.312V24.112z M107.134,79.578h35.141
	c1.376,6.199,2.064,12.745,2.064,19.632c0,6.204-0.688,12.403-1.723,18.602h-35.481V79.578h-0.341H107.134z M106.793,173.277
	v-38.239h30.659C130.906,150.541,120.567,163.632,106.793,173.277z M135.035,170.866c9.304-10.333,16.191-22.737,20.672-36.169
	h14.809C162.941,150.193,150.544,162.944,135.035,170.866z M179.132,98.521c0,6.546-0.688,13.092-2.411,18.949h-16.879
	c1.029-6.205,1.376-12.057,1.376-18.603c0-6.545-0.688-13.091-1.723-19.637h17.226C178.444,85.777,179.132,91.976,179.132,98.521z
	 M155.366,62.353c-4.822-13.78-12.063-26.184-21.36-36.517c15.844,7.922,28.588,20.666,36.51,36.517H155.366z"/>
</svg>
