<?xml version="1.0" encoding="utf-8"?>
<!-- Generator: Adobe Illustrator 16.0.0, SVG Export Plug-In . SVG Version: 6.00 Build 0)  -->
<!DOCTYPE svg PUBLIC "-//W3C//DTD SVG 1.1//EN" "http://www.w3.org/Graphics/SVG/1.1/DTD/svg11.dtd">
<svg version="1.1" id="Layer_1" xmlns="http://www.w3.org/2000/svg" xmlns:xlink="http://www.w3.org/1999/xlink" x="0px" y="0px"
	 width="74.11px" height="67.84px" viewBox="0 0 74.11 67.84" enable-background="new 0 0 74.11 67.84" xml:space="preserve">
<g>
	<path d="M29.242,53.715l31.559-18.222c0.496-0.285,0.801-0.813,0.801-1.383c0-0.574-0.305-1.102-0.801-1.387L29.242,14.501
		c-0.496-0.286-1.105-0.286-1.601,0c-0.493,0.285-0.797,0.812-0.797,1.382v8.485H-0.398C-1.281,24.368-2,25.086-2,25.969v16.274
		c0,0.886,0.719,1.601,1.602,1.601h27.242v8.485c0,0.57,0.304,1.101,0.797,1.386c0.25,0.142,0.527,0.215,0.8,0.215
		C28.719,53.93,28.996,53.86,29.242,53.715L29.242,53.715z M29.242,53.715"/>
	<path d="M62.523-4.16H29.926c-0.883,0-1.602,0.719-1.602,1.602v4.797c0,0.883,0.719,1.601,1.602,1.601h32.598
		c2.105,0,3.816,1.711,3.816,3.817v52.901c0,2.103-1.711,3.817-3.816,3.817H29.926c-0.883,0-1.602,0.714-1.602,1.597v4.802
		c0,0.883,0.719,1.602,1.602,1.602h32.598c6.516,0,11.816-5.305,11.816-11.817V7.657C74.34,1.141,69.039-4.16,62.523-4.16
		L62.523-4.16z M62.523-4.16"/>
</g>
</svg>
