<?xml version="1.0" encoding="utf-8"?>
<!-- Generator: Adobe Illustrator 16.0.0, SVG Export Plug-In . SVG Version: 6.00 Build 0)  -->
<!DOCTYPE svg PUBLIC "-//W3C//DTD SVG 1.1//EN" "http://www.w3.org/Graphics/SVG/1.1/DTD/svg11.dtd">
<svg version="1.1" id="Layer_1" xmlns="http://www.w3.org/2000/svg" xmlns:xlink="http://www.w3.org/1999/xlink" x="0px" y="0px"
	 width="83.241px" height="109.529px" viewBox="0 0 83.241 109.529" enable-background="new 0 0 83.241 109.529"
	 xml:space="preserve">
<path fill-rule="evenodd" clip-rule="evenodd" d="M82.879,86.049c0.537,5.317,0.424,8.178,0,11.439
	c-4.117,4.817-9.561,7.493-15.531,8.934c-5.585,1.348-11.315,2.096-16.981,3.107c-5.82,0-11.64,0-17.46,0
	c-2.747-0.399-5.501-0.751-8.239-1.208c-9.025-1.506-17.807-3.581-24.272-10.833c-0.565-4.165-0.489-7.176,0-11.439
	c0.408-2.964,0.769-5.934,1.233-8.889c1.19-7.576,4.574-13.801,11.924-16.831c4.585-1.891,9.493-3.036,14.313-4.291
	c0.941-0.245,2.343,0.278,3.208,0.898c6.17,4.424,14.958,4.413,21.128,0.006c0.928-0.663,2.442-1.121,3.5-0.876
	c4.077,0.944,8.157,1.999,12.094,3.405c7.374,2.634,11.907,7.906,13.363,15.647C81.842,78.742,82.313,82.404,82.879,86.049z"/>
<path fill-rule="evenodd" clip-rule="evenodd" d="M47.532,0.479c7.776,1.269,12.665,5.751,14.515,13.304
	c1.907,7.789,2.312,15.659-0.313,23.413C58.35,47.188,50.263,53.7,41.334,53.494c-7.455-0.172-12.831-4.084-16.771-10.117
	c-4.173-6.39-5.332-13.54-4.645-21.004c0.302-3.273,0.745-6.593,1.656-9.738c1.96-6.77,6.649-10.74,13.568-12.087
	C35.815,0.417,41.078-0.573,47.532,0.479z"/>
</svg>
