<?xml version="1.0" encoding="utf-8"?>
<!-- Generator: Adobe Illustrator 16.0.0, SVG Export Plug-In . SVG Version: 6.00 Build 0)  -->
<!DOCTYPE svg PUBLIC "-//W3C//DTD SVG 1.1//EN" "http://www.w3.org/Graphics/SVG/1.1/DTD/svg11.dtd">
<svg version="1.1" id="Layer_1" xmlns="http://www.w3.org/2000/svg" xmlns:xlink="http://www.w3.org/1999/xlink" x="0px" y="0px"
	 width="392.225px" height="337.851px" viewBox="0 0 392.225 337.851" enable-background="new 0 0 392.225 337.851"
	 xml:space="preserve">
<g>
	<g>
		<path d="M0.035,168.969c0.481,8.081,5.84,14.882,13.598,17.198l143.683,43.441l5.278,99.039c0.242,3.922,2.879,7.363,6.64,8.641
			c1.039,0.402,2.161,0.563,3.2,0.563c2.8,0,5.441-1.121,7.359-3.281l50.801-56.243l72,49.841c3.199,2.241,6.961,3.441,10.879,3.441
			c9.043,0,16.882-6.398,18.8-15.359l59.762-304.558c0.72-3.524-0.64-7.204-3.358-9.442c-2.802-2.319-6.563-2.879-9.922-1.519
			L11.555,150.167C4.112,153.53-0.445,160.891,0.035,168.969L0.035,168.969z M180.835,304.089l-3.281-62.48l36.8,25.441
			L180.835,304.089z M313.155,311.69l-131.043-90.723L365.874,43.21L313.155,311.69z M345.715,35.37l-181.68,175.758L20.516,167.77
			L345.715,35.37z M345.715,35.37"/>
	</g>
</g>
</svg>
