<?xml version="1.0" encoding="utf-8"?>
<!-- Generator: Adobe Illustrator 16.0.0, SVG Export Plug-In . SVG Version: 6.00 Build 0)  -->
<!DOCTYPE svg PUBLIC "-//W3C//DTD SVG 1.1//EN" "http://www.w3.org/Graphics/SVG/1.1/DTD/svg11.dtd">
<svg version="1.1" id="Layer_1" xmlns="http://www.w3.org/2000/svg" xmlns:xlink="http://www.w3.org/1999/xlink" x="0px" y="0px"
	 width="398.667px" height="355.063px" viewBox="0 0 398.667 355.063" enable-background="new 0 0 398.667 355.063"
	 xml:space="preserve">
<path fill="#FFFFFF" d="M38.435,355.019c0.891,0.061,1.781,0.061,2.672,0l43.788-6.002c24.588-3.415,48.138-12.15,69.012-25.59
	c12.204-7.938,22.884-17.991,31.547-29.698c4.9-6.549,10.555-12.508,16.838-17.74l69.836-58.172
	c13.201-10.902,17.09-29.493,9.373-44.778c-9.195-17.622-30.928-24.452-48.549-15.271c-0.252,0.133-0.502,0.267-0.755,0.406
	l-84.456,47.114c-1.168,0.658-2.454,1.087-3.777,1.279c-3.274,0.429-6.564-0.65-8.955-2.92c-1.852-1.907-3.012-4.383-3.286-7.029
	l-11.257-82.15c-0.732-5.227-5.285-9.048-10.555-8.878c-2.295,0.082-4.586,0.273-6.859,0.577
	c-14.329,1.929-27.645,8.434-37.956,18.567L6.271,182.527c-4.716,4.643-6.97,11.234-6.08,17.783l18.896,137.825
	C20.437,347.79,28.682,354.989,38.435,355.019z M79.514,139.561c6.094-5.995,13.73-10.186,22.06-12.115l9.857,71.965
	c0.924,7.267,4.283,14,9.531,19.101c9.998,9.461,25.006,11.279,36.966,4.479l84.132-46.907c7.449-4.169,16.854-1.508,21.021,5.929
	c0.104,0.191,0.207,0.369,0.295,0.563c3.179,6.667,1.359,14.635-4.391,19.263l-69.836,58.127
	c-7.525,6.269-14.295,13.396-20.165,21.244l0,0c-7.214,9.713-16.106,18.05-26.255,24.644c-18.35,11.813-39.054,19.499-60.67,22.509
	l-42.927,5.993L20.606,197.191L79.514,139.561z M280.923,280.134l-4.522-32.862c-0.769-5.67,3.208-10.896,8.87-11.672
	c5.678-0.769,10.896,3.209,11.664,8.877l4.568,33.314c0,0.288,0,0.576,0,0.857c1.004,18.287-12.996,33.92-31.281,34.926
	c-4.583,0.251-9.166-0.451-13.453-2.063c-10.467,14.835-30.971,18.375-45.799,7.909c-0.621-0.437-1.227-0.895-1.818-1.375
	c-4.42,3.252-9.587,5.344-15.034,6.083c-5.662,0.77-10.896-3.2-11.664-8.877c-0.769-5.67,3.208-10.896,8.877-11.664
	c3.896-0.555,7.311-2.897,9.247-6.327c1.894-3.164,5.381-5.02,9.077-4.805c3.74,0.089,7.142,2.218,8.87,5.544
	c3.178,6.224,10.807,8.685,17.03,5.499c3.415-1.752,5.854-4.967,6.622-8.744c1.169-5.551,6.607-9.105,12.166-7.945
	c1.908,0.398,3.652,1.33,5.057,2.689c4.924,4.923,12.906,4.932,17.829,0.008C279.712,287.029,281.042,283.631,280.923,280.134z
	 M378.066,26.683c-2.572-17.104-18.509-28.887-35.613-26.336l-183.86,27.481c-17.104,2.58-28.883,18.517-26.336,35.62l14.54,96.904
	c1.094,5.559,6.49,9.195,12.048,8.102c5.226-1.021,8.803-5.854,8.249-11.146l-8.22-55.947l205.399-30.809l13.764,94.11
	c0.901,5.892-3.148,11.413-9.047,12.322c-0.016,0-0.029,0-0.046,0l-55.983,8.219c-5.676,0.414-9.935,5.352-9.506,11.027
	c0.414,5.67,5.353,9.929,11.028,9.506h1.522l55.983-8.211c17.104-2.596,28.888-18.547,26.329-35.657L378.066,26.683z M155.674,81.07
	l-3.083-20.549c-0.902-5.891,3.142-11.405,9.04-12.314c0.015,0,0.022,0,0.037,0l183.83-27.689
	c5.898-0.901,11.412,3.142,12.313,9.033c0,0.015,0,0.029,0,0.044l3.09,20.534L155.674,81.07z"/>
</svg>
