<?xml version="1.0" encoding="utf-8"?>
<!-- Generator: Adobe Illustrator 16.0.0, SVG Export Plug-In . SVG Version: 6.00 Build 0)  -->
<!DOCTYPE svg PUBLIC "-//W3C//DTD SVG 1.1//EN" "http://www.w3.org/Graphics/SVG/1.1/DTD/svg11.dtd">
<svg version="1.1" id="Layer_1" xmlns="http://www.w3.org/2000/svg" xmlns:xlink="http://www.w3.org/1999/xlink" x="0px" y="0px"
	 width="432.051px" height="270.262px" viewBox="0 0 432.051 270.262" enable-background="new 0 0 432.051 270.262"
	 xml:space="preserve">
<path fill="#FFFFFF" d="M404.168,2.31c-10.736-3.581-23.011-3.069-32.73,2.039L266.618,49.348L162.807,24.809
	c-4.091-1.021-8.178-0.51-11.759,1.532L127.016,38.1c-6.14,3.069-10.226,9.209-10.226,16.365c0,7.161,4.086,13.301,10.226,15.85
	l53.689,24.544L97.35,137.305c-0.511,0.512-1.528,0.512-2.044,0l-64.94-22.5c-5.629-2.044-11.764-1.532-17.388,1.026
	c-7.161,3.581-11.758,9.715-12.78,17.387c-1.03,7.672,2.044,15.335,7.668,20.452l63.403,53.184
	c5.117,4.087,11.769,5.107,17.902,3.064l127.845-47.043l-24.037,77.729c-2.56,8.69,0,18.404,7.161,24.028
	c4.087,3.585,9.716,5.629,14.823,5.629c3.585,0,6.65-1.03,10.23-2.559l19.947-9.716c4.602-2.044,8.688-6.136,10.727-10.736
	l57.277-120.684l94.604-44.489c10.23-5.117,18.413-13.802,21.989-25.06c3.586-10.735,3.075-23.007-2.038-33.231
	C423.604,14.067,414.904,5.89,404.168,2.31z M416.447,52.422c-2.561,7.156-7.668,12.78-14.322,15.854l-97.152,45.507
	c-1.541,0.51-3.074,2.048-3.595,3.579l-58.792,123.748c-0.521,1.532-2.044,3.069-3.59,3.581l-19.938,9.716
	c-4.097,2.044-7.671-0.506-8.184-1.022c-1.021-1.025-3.58-3.574-2.559-8.182l28.635-92.555c1.029-2.555,0-5.624-2.043-7.673
	c-1.528-1.532-3.581-2.048-5.113-2.048c-1.021,0-1.531,0-2.563,0.516L84.569,195.605c-1.021,0.512-2.044,0-2.56-0.512
	l-62.897-53.188c-2.043-1.526-3.07-4.09-2.55-6.645c0.507-2.56,2.039-4.604,4.087-5.624c1.532-1.027,3.576-1.027,5.619-0.516
	l64.946,22.505c4.606,1.532,9.72,1.021,13.807-1.021l97.161-49.606c2.554-1.533,4.091-4.087,4.091-7.16
	c0-3.066-2.047-5.624-4.602-6.646l-68.527-31.192c-1.532-0.513-1.532-1.533-1.532-2.044s0-1.532,1.532-2.555l24.038-11.768
	c0.511-0.512,1.021-0.512,1.533,0l106.364,25.06c1.538,0.511,3.065,0,4.604-0.512l107.393-46.533
	c6.641-3.068,14.313-3.58,21.472-1.537c7.162,2.561,12.782,7.678,16.356,14.322C418.49,38.1,419.002,45.261,416.447,52.422z"/>
</svg>
