<?xml version="1.0" encoding="utf-8"?>
<!-- Generator: Adobe Illustrator 16.0.0, SVG Export Plug-In . SVG Version: 6.00 Build 0)  -->
<!DOCTYPE svg PUBLIC "-//W3C//DTD SVG 1.1//EN" "http://www.w3.org/Graphics/SVG/1.1/DTD/svg11.dtd">
<svg version="1.1" id="Layer_1" xmlns="http://www.w3.org/2000/svg" xmlns:xlink="http://www.w3.org/1999/xlink" x="0px" y="0px"
	 width="350.771px" height="350.666px" viewBox="0 0 350.771 350.666" enable-background="new 0 0 350.771 350.666"
	 xml:space="preserve">
<path fill="#FFFFFF" d="M207.014,121.899H65.624c-1.232,0-2.246,1.005-2.246,2.238c0,1.232,1.014,2.238,2.246,2.238h141.391
	c1.232,0,2.245-1.006,2.245-2.238C209.26,122.904,208.247,121.899,207.014,121.899z"/>
<path fill="#FFFFFF" d="M148.509,219.417H65.624c-1.232,0-2.246,0.998-2.246,2.23s1.014,2.237,2.246,2.237h89.682l-5.505-4.028
	C149.39,219.558,148.964,219.417,148.509,219.417z"/>
<path fill="#FFFFFF" d="M316.51,81.946c-4.123,0-6.561,1.71-6.663,1.783l-17.012,12.072l-0.749,1.042l-1.556,1.285l-17.893,12.439
	v-75.7C272.638,13.687,258.122,0,235.636,0H44.605C22.984,0,0,12.227,0,34.867v273.938c0,21.129,22.09,41.861,44.605,41.861h191.029
	c20.755,0,37.003-18.384,37.003-41.861V191.706l57.653-40.085c0.367-0.249,0.646-0.608,0.822-1.049l0.808-2.106l15.837-11.236
	c0.221-0.161,0.411-0.359,0.559-0.572c0.396-0.608,8.807-14.098-7.984-37.772C332.361,87.641,324.348,81.946,316.51,81.946z
	 M258.415,308.804c0,13.585-8.526,27.64-22.778,27.64H44.605c-14.767,0-30.383-14.208-30.383-27.64V34.867
	c0-14.229,17.767-20.637,30.383-20.637h191.029c10.393,0,22.779,3.582,22.779,20.637v85.586l-64.831,45.075v1.681l-2.261,1.131
	l-1.086,1.761l-4.535,0.558H65.624c-1.232,0-2.246,0.998-2.246,2.231c0,1.232,1.014,2.238,2.246,2.238h121.474l-30.75,49.516
	l-0.016-0.008l-7.56,12.197c-0.478,0.771-0.439,1.77,0.074,2.488c0.433,0.587,1.106,0.932,1.818,0.932l77.161-18.714v-0.617
	l4.374-1.106l26.214-18.23L258.415,308.804L258.415,308.804z M194.436,171.803l31.659,45.551l-70.645,17.203L194.436,171.803z
	 M230.366,215.646l-32.922-47.357l95.537-66.417l32.907,47.357L230.366,215.646z M345.909,130.558l-0.587,2.914l-15.294,10.869
	L297.253,98.15l16.042-11.39l3.215-0.338c4.33,0,11.347,2.613,20.167,15.06C346.907,115.88,346.849,125.876,345.909,130.558z"/>
<path fill="#FFFFFF" d="M65.624,82.489h141.391c1.232,0,2.245-0.998,2.245-2.23c0-1.233-1.013-2.238-2.245-2.238H65.624
	c-1.232,0-2.246,1.005-2.246,2.238C63.378,81.491,64.391,82.489,65.624,82.489z"/>
</svg>
