<?xml version="1.0" encoding="utf-8"?>
<!-- Generator: Adobe Illustrator 16.0.0, SVG Export Plug-In . SVG Version: 6.00 Build 0)  -->
<!DOCTYPE svg PUBLIC "-//W3C//DTD SVG 1.1//EN" "http://www.w3.org/Graphics/SVG/1.1/DTD/svg11.dtd">
<svg version="1.1" id="Layer_1" xmlns="http://www.w3.org/2000/svg" xmlns:xlink="http://www.w3.org/1999/xlink" x="0px" y="0px"
	 width="346.377px" height="299.773px" viewBox="0 0 346.377 299.773" enable-background="new 0 0 346.377 299.773"
	 xml:space="preserve">
<g>
	<g>
		<g>
			<polygon fill="#FFFFFF" points="204.957,299.773 0,299.675 0,54.655 334.76,54.655 334.76,177.623 307.433,177.623 
				307.433,77.908 27.327,78.154 27.327,272.478 204.957,272.446 			"/>
		</g>
		<g>
			<path fill="#FFFFFF" d="M0,0v81.982h334.76V0H0z M54.649,54.655H27.327V27.327h27.322V54.655z M95.646,54.655H68.319V27.327
				h27.327V54.655z M136.631,54.655h-27.327V27.327h27.327V54.655z"/>
		</g>
	</g>
	<polygon fill="#FFFFFF" points="251.043,297.192 215.086,251.4 236.575,234.522 255.642,258.801 329.485,200.704 346.377,222.174 	
		"/>
</g>
</svg>
