<?xml version="1.0" encoding="utf-8"?>
<!-- Generator: Adobe Illustrator 16.0.0, SVG Export Plug-In . SVG Version: 6.00 Build 0)  -->
<!DOCTYPE svg PUBLIC "-//W3C//DTD SVG 1.1//EN" "http://www.w3.org/Graphics/SVG/1.1/DTD/svg11.dtd">
<svg version="1.1" id="Layer_1" xmlns="http://www.w3.org/2000/svg" xmlns:xlink="http://www.w3.org/1999/xlink" x="0px" y="0px"
	 width="309.98px" height="310.248px" viewBox="0 0 309.98 310.248" enable-background="new 0 0 309.98 310.248"
	 xml:space="preserve">
<rect x="6.198" y="58.491" fill="#FFFFFF" width="194.075" height="12.396"/>
<rect x="155.263" fill="#FFFFFF" width="12.396" height="45.277"/>
<rect x="38.818" fill="#FFFFFF" width="12.396" height="45.277"/>
<path fill="#FFFFFF" d="M64.15,122.643H25.877V84.369H64.15V122.643z M38.273,110.246h13.48v-13.48h-13.48V110.246z"/>
<path fill="#FFFFFF" d="M64.15,174.392H25.877v-38.269H64.15V174.392z M38.273,161.994h13.48V148.52h-13.48V161.994z"/>
<path fill="#FFFFFF" d="M122.376,122.643h-38.28V84.369h38.28V122.643z M96.492,110.246h13.486v-13.48H96.492V110.246z"/>
<path fill="#FFFFFF" d="M122.376,174.392h-38.28v-38.269h38.28V174.392z M96.492,161.994h13.486V148.52H96.492V161.994z"/>
<path fill="#FFFFFF" d="M180.595,122.643h-38.268V84.369h38.268V122.643z M154.724,110.246h13.476v-13.48h-13.476V110.246z"/>
<polygon fill="#FFFFFF" points="132.395,200.274 0,200.274 0,19.673 206.473,19.673 206.473,131.184 194.076,131.184 
	194.076,32.069 12.396,32.069 12.396,187.878 132.395,187.878 "/>
<path fill="#FFFFFF" d="M274.734,210.554c0,6.834-1.09,13.092-3.269,18.764c-2.191,5.673-5.278,10.121-9.262,13.354
	c-3.989,3.231-8.62,4.843-13.887,4.843c-3.518,0-6.629-0.842-9.334-2.529c-2.706-1.685-4.654-3.904-5.836-6.659h-1.144
	c-5.127,6.126-11.652,9.188-19.582,9.188c-8.408,0-15.03-2.529-19.879-7.584c-4.842-5.056-7.265-11.979-7.265-20.757
	c0-10.024,3.186-18.094,9.547-24.219c6.361-6.126,14.673-9.188,24.934-9.188c4.079,0,8.577,0.394,13.492,1.174
	c4.915,0.781,8.965,1.726,12.143,2.814l-1.641,34.83c0,6.598,1.804,9.896,5.412,9.896c3.038,0,5.46-2.222,7.27-6.658
	c1.804-4.438,2.706-10.248,2.706-17.415c0-7.646-1.593-14.396-4.771-20.267c-3.185-5.858-7.663-10.332-13.427-13.42
	c-5.773-3.087-12.359-4.631-19.77-4.631c-9.588,0-17.917,1.975-24.993,5.908c-7.076,3.945-12.5,9.63-16.277,17.059
	c-3.776,7.434-5.659,16.017-5.659,25.75c0,13.104,3.499,23.158,10.503,30.162c7.01,7.004,17.153,10.502,30.446,10.502
	c5.036,0,10.568-0.557,16.599-1.671c6.028-1.112,11.961-2.741,17.803-4.879v13.675c-10.157,4.315-21.435,6.482-33.831,6.482
	c-18.039,0-32.105-4.745-42.197-14.249c-10.09-9.491-15.133-22.692-15.133-39.601c0-11.725,2.573-22.371,7.73-31.937
	c5.145-9.569,12.48-17.069,22.003-22.506c9.521-5.44,20.478-8.159,32.868-8.159c10.441,0,19.775,2.137,27.989,6.41
	c8.215,4.273,14.559,10.355,19.014,18.238C272.507,191.151,274.734,200.25,274.734,210.554z M201.806,219.451
	c0,10.022,4.086,15.028,12.252,15.028c4.273,0,7.523-1.506,9.758-4.521c2.233-3.015,3.583-7.917,4.056-14.709l0.933-15.737
	c-2.421-0.521-5.157-0.787-8.196-0.787c-5.932,0-10.544,1.853-13.85,5.557C203.452,207.985,201.806,213.047,201.806,219.451z"/>
<path fill="#FFFFFF" d="M216.588,310.248c-51.501,0-93.4-41.896-93.4-93.394s41.899-93.396,93.4-93.396
	c51.497,0,93.394,41.896,93.394,93.396C309.981,268.353,268.085,310.248,216.588,310.248z M216.588,135.856
	c-44.666,0-81.004,36.336-81.004,80.999s36.338,80.996,81.004,80.996c44.662,0,80.997-36.334,80.997-80.996
	S261.25,135.856,216.588,135.856z"/>
</svg>
