<?xml version="1.0" encoding="utf-8"?>
<!-- Generator: Adobe Illustrator 16.0.0, SVG Export Plug-In . SVG Version: 6.00 Build 0)  -->
<!DOCTYPE svg PUBLIC "-//W3C//DTD SVG 1.1//EN" "http://www.w3.org/Graphics/SVG/1.1/DTD/svg11.dtd">
<svg version="1.1" id="Layer_1" xmlns="http://www.w3.org/2000/svg" xmlns:xlink="http://www.w3.org/1999/xlink" x="0px" y="0px"
	 width="284.85px" height="284.846px" viewBox="0 0 284.85 284.846" enable-background="new 0 0 284.85 284.846"
	 xml:space="preserve">
<path fill="#C5A067" d="M189.3,197c0,3.39,2.745,6.134,6.14,6.134c0.398,0,0.786-0.046,1.161-0.119
	c-0.192,4.129-1.469,5.95-3.804,8.582c-1.003,1.385-1.311,2.301-1.311,3.148c0,1.384,0.854,1.767,1.766,2.073
	c1.618,0.382,3.234-0.996,5.308-3.457c2.77-3.383,5.148-7.916,5.148-14.527c0-4.688-3.154-8.378-7.301-8.378
	c-2.152,0-3.861,0.725-5.022,1.971C190.12,193.549,189.3,195.172,189.3,197z"/>
<path fill="#C5A067" d="M209.232,197c0,3.39,2.745,6.134,6.14,6.134c0.398,0,0.786-0.046,1.162-0.119
	c-0.193,4.129-1.47,5.95-3.805,8.582c-1.003,1.385-1.311,2.301-1.311,3.148c0,1.384,0.843,1.767,1.766,2.073
	c1.617,0.382,3.234-0.996,5.309-3.457c2.757-3.383,5.147-7.916,5.147-14.527c0-4.688-3.155-8.378-7.301-8.378
	c-2.164,0-3.861,0.725-5.023,1.971C210.053,193.549,209.232,195.172,209.232,197z"/>
<path fill="#C5A067" d="M110.402,123.41c0-4.893-3.958-8.851-8.851-8.851c-0.569,0-1.127,0.067-1.674,0.171
	c0.272-5.957,2.118-8.588,5.49-12.381c1.439-1.993,1.891-3.326,1.891-4.544c0-1.999-1.225-2.553-2.552-2.996
	c-2.335-0.559-4.658,1.445-7.654,4.988c-3.992,4.881-7.426,11.425-7.426,20.957c0,6.767,4.545,12.085,10.53,12.085
	c3.108,0,5.574-1.036,7.237-2.836C109.229,128.382,110.402,126.041,110.402,123.41z"/>
<g>
	<g>
		<path fill="#C5A067" d="M266.615,0H18.229C8.2,0,0,8.201,0,18.229v7.831v240.555c0,10.028,8.2,18.229,18.229,18.229h248.385
			c10.035,0,18.235-8.2,18.235-18.229V26.061V18.23C284.85,8.201,276.649,0,266.615,0z M49.916,21.538h214.296
			c2.881,0,5.216,2.324,5.216,5.205c0,2.87-2.335,5.205-5.216,5.205H49.916c-2.876,0-5.211-2.335-5.211-5.205
			C44.705,23.862,47.04,21.538,49.916,21.538z M28.167,17.769c4.954,0,8.975,4.021,8.975,8.975c0,4.955-4.021,8.97-8.975,8.97
			c-4.955,0-8.977-4.015-8.977-8.97C19.191,21.783,23.212,17.769,28.167,17.769z M266.615,269.024H18.229
			c-1.28,0-2.409-1.128-2.409-2.409V50.879h253.198v215.736C269.019,267.896,267.891,269.024,266.615,269.024z"/>
	</g>
</g>
<g>
	<path fill="#C5A067" d="M223.982,128.535H123.096c-2.329,0-4.214-1.879-4.214-4.209c0-2.329,1.885-4.214,4.214-4.214h100.887
		c2.323,0,4.214,1.885,4.214,4.214C228.196,126.656,226.306,128.535,223.982,128.535z"/>
</g>
<g>
	<path fill="#C5A067" d="M223.982,164.676H69.951c-2.33,0-4.216-1.891-4.216-4.215c0-2.329,1.886-4.214,4.216-4.214h154.03
		c2.323,0,4.214,1.885,4.214,4.214C228.196,162.785,226.306,164.676,223.982,164.676z"/>
</g>
<g>
	<path fill="#C5A067" d="M170.837,200.81H69.951c-2.33,0-4.216-1.892-4.216-4.214c0-2.329,1.886-4.215,4.216-4.215h100.886
		c2.323,0,4.214,1.886,4.214,4.215C175.051,198.919,173.16,200.81,170.837,200.81z"/>
</g>
<path fill="#C5A067" d="M81.643,123.41c0-4.893-3.958-8.851-8.85-8.851c-0.57,0-1.128,0.067-1.675,0.171
	c0.272-5.957,2.117-8.588,5.489-12.381c1.44-1.993,1.892-3.326,1.892-4.544c0-1.999-1.226-2.553-2.553-2.996
	c-2.335-0.559-4.657,1.445-7.652,4.988c-3.992,4.881-7.427,11.425-7.427,20.957c0,6.767,4.545,12.085,10.529,12.085
	c3.109,0,5.575-1.036,7.238-2.836C80.47,128.382,81.643,126.041,81.643,123.41z"/>
</svg>
