<?xml version="1.0" encoding="utf-8"?>
<!-- Generator: Adobe Illustrator 16.0.0, SVG Export Plug-In . SVG Version: 6.00 Build 0)  -->
<!DOCTYPE svg PUBLIC "-//W3C//DTD SVG 1.1//EN" "http://www.w3.org/Graphics/SVG/1.1/DTD/svg11.dtd">
<svg version="1.1" id="Layer_1" xmlns="http://www.w3.org/2000/svg" xmlns:xlink="http://www.w3.org/1999/xlink" x="0px" y="0px"
	 width="60.643px" height="75.115px" viewBox="0 0 60.643 75.115" enable-background="new 0 0 60.643 75.115" xml:space="preserve">
<path fill="#c5a067" d="M58.217,37.431c-1.616-1.615-3.734-2.425-5.853-2.425c-2.119,0-4.237,0.81-5.854,2.425L24.103,59.784
	c-0.056,0-0.056,0.057-0.056,0.057c-0.057,0.057-0.112,0.166-0.167,0.224c0,0.057-0.058,0.057-0.058,0.11
	c-0.057,0.056-0.11,0.168-0.11,0.225v0.055l-3.177,12.933c-0.112,0.502,0.056,1.004,0.389,1.338c0.28,0.224,0.614,0.391,1.004,0.391
	c0.112,0,0.225-0.057,0.334-0.057l12.935-3.178h0.055c0.057-0.055,0.168-0.055,0.224-0.108c0.056,0,0.056-0.058,0.111-0.058
	c0.111-0.057,0.168-0.11,0.278-0.224l22.354-22.354C61.451,45.904,61.451,40.664,58.217,37.431z M23.823,71.825l2.063-8.308
	l6.242,6.244L23.823,71.825z M34.862,68.536l-7.75-7.748l17.948-17.949l7.749,7.747L34.862,68.536z M56.265,47.131l-1.505,1.506
	l-7.803-7.748l1.505-1.506c1.115-1.059,2.452-1.616,3.901-1.616s2.842,0.559,3.9,1.616C58.384,41.501,58.384,45.012,56.265,47.131z"
	/>
<path fill="#c5a067" d="M49.373,67.005c0,2.263-1.707,3.97-3.97,3.97h-5.164l-2.44,2.44c-0.156,0.159-0.341,0.336-0.596,0.507
	l-0.588,0.577h-0.188l-0.12,0.109h-0.78l-1.871,0.46h11.748c4.521,0,8.063-3.542,8.063-8.063v-9.257l-4.094,4.092L49.373,67.005
	L49.373,67.005z"/>
<path fill="#c5a067" d="M17.885,72.733l0.434-1.76H8.063c-2.264,0-3.972-1.707-3.972-3.97V8.064c0-2.265,1.708-3.971,3.972-3.971
	h37.34c2.263,0,3.97,1.707,3.97,3.971v24.632c0.962-0.271,1.966-0.418,2.992-0.418c0.37,0,0.736,0.019,1.102,0.054V8.064
	C53.467,3.543,49.925,0,45.404,0H8.064C3.542,0,0,3.542,0,8.064v58.939c0,4.521,3.542,8.063,8.064,8.063h9.964
	C17.774,74.34,17.704,73.544,17.885,72.733z"/>
<path fill="#c5a067" d="M47.14,8.486H7.558V33.41H47.14V8.486z M43.047,29.316H11.653V12.58h31.394V29.316z"/>
<rect x="9.76" y="37.494" fill="#010101" width="7.406" height="4.093"/>
<rect x="23.03" y="37.494" fill="#010101" width="7.403" height="4.093"/>
<polygon fill="#c5a067" points="36.299,37.494 36.299,41.587 38.481,41.587 42.586,37.494 "/>
<rect x="9.76" y="45.825" fill="#010101" width="7.406" height="4.094"/>
<polygon fill="#c5a067" points="30.434,45.825 23.03,45.825 23.03,49.919 30.129,49.919 30.434,49.613 "/>
<rect x="9.76" y="54.156" fill="#010101" width="7.406" height="4.095"/>
<polygon fill="#c5a067" points="23.03,54.156 23.03,57.001 25.881,54.156 "/>
<rect x="9.76" y="62.488" fill="#010101" width="7.406" height="4.094"/>
</svg>
