<?xml version="1.0" encoding="utf-8"?>
<!-- Generator: Adobe Illustrator 16.0.0, SVG Export Plug-In . SVG Version: 6.00 Build 0)  -->
<!DOCTYPE svg PUBLIC "-//W3C//DTD SVG 1.1//EN" "http://www.w3.org/Graphics/SVG/1.1/DTD/svg11.dtd">
<svg version="1.1" id="Layer_1" xmlns="http://www.w3.org/2000/svg" xmlns:xlink="http://www.w3.org/1999/xlink" x="0px" y="0px"
	 width="273.229px" height="273.229px" viewBox="0 0 273.229 273.229" enable-background="new 0 0 273.229 273.229"
	 xml:space="preserve">
<path fill="#D7D7D7" d="M136.614,273.229C61.285,273.229,0,211.943,0,136.614C0,61.285,61.285,0,136.614,0
	c75.329,0,136.614,61.285,136.614,136.613C273.229,211.943,211.944,273.229,136.614,273.229z M136.614,11.229
	c-69.138,0-125.386,56.248-125.386,125.387C11.228,205.753,67.477,262,136.614,262C205.751,262,262,205.752,262,136.614
	C262,67.476,205.752,11.229,136.614,11.229z"/>
<path fill="#A9A9A9" d="M152.17,190.02c-0.731,0-1.462,0-2.193,0c-0.065-0.033-0.125-0.092-0.193-0.099
	c-2.267-0.314-4.087-1.43-5.666-3.056c-2.392-2.469-4.825-4.892-7.245-7.332c-11.963-12.063-23.927-24.129-35.897-36.176
	c-1.206-1.222-2.116-2.596-2.599-4.248c-0.128-0.438-0.228-0.881-0.34-1.322c0-0.778,0-1.562,0-2.344
	c0.04-0.08,0.108-0.159,0.124-0.248c0.296-1.971,1.17-3.645,2.563-5.056c14.621-14.744,29.245-29.489,43.873-44.229
	c1.061-1.071,2.313-1.851,3.772-2.271c0.529-0.157,1.07-0.285,1.607-0.428c0.731,0,1.462,0,2.193,0
	c0.109,0.048,0.219,0.104,0.333,0.128c3.411,0.603,5.757,2.536,7.084,5.705c0.296,0.706,0.424,1.478,0.632,2.216
	c0,0.73,0,1.462,0,2.196c-0.041,0.084-0.103,0.172-0.113,0.264c-0.311,2.189-1.385,3.947-2.928,5.497
	c-12.212,12.292-24.413,24.599-36.617,36.898c-0.153,0.152-0.292,0.317-0.468,0.504c0.223,0.229,0.42,0.441,0.621,0.646
	c12.237,12.336,24.475,24.681,36.716,37.012c1.159,1.162,1.985,2.516,2.445,4.088c0.132,0.468,0.227,0.938,0.344,1.409
	c0,0.735,0,1.467,0,2.197c-0.048,0.105-0.117,0.208-0.135,0.321c-0.585,3.418-2.529,5.757-5.691,7.091
	C153.691,189.684,152.916,189.814,152.17,190.02z"/>
</svg>
