<?xml version="1.0" encoding="utf-8"?>
<!-- Generator: Adobe Illustrator 16.0.0, SVG Export Plug-In . SVG Version: 6.00 Build 0)  -->
<!DOCTYPE svg PUBLIC "-//W3C//DTD SVG 1.1//EN" "http://www.w3.org/Graphics/SVG/1.1/DTD/svg11.dtd">
<svg version="1.1" id="Layer_1" xmlns="http://www.w3.org/2000/svg" xmlns:xlink="http://www.w3.org/1999/xlink" x="0px" y="0px"
	 width="20.549px" height="26.29px" viewBox="0 0 20.549 26.29" enable-background="new 0 0 20.549 26.29" xml:space="preserve">
<g>
	<path fill="#C5A067" d="M10.539,25.725c-0.196,0-0.383-0.082-0.52-0.223c-0.371-0.398-9.16-9.771-9.16-14.946
		c0-5.34,4.34-9.679,9.68-9.679c5.335,0,9.675,4.339,9.675,9.679c0,5.176-8.785,14.547-9.16,14.946
		C10.92,25.643,10.733,25.725,10.539,25.725L10.539,25.725z M10.539,2.295c-4.555,0-8.258,3.707-8.258,8.257
		c0,3.586,5.543,10.43,8.258,13.416c2.71-2.984,8.257-9.828,8.257-13.416C18.796,6.002,15.089,2.295,10.539,2.295L10.539,2.295z"/>
	<path fill="#C5A067" d="M10.539,13.584c-2.258,0-4.094-1.836-4.094-4.094c0-2.258,1.836-4.094,4.094-4.094
		c2.253,0,4.093,1.836,4.093,4.094C14.632,11.748,12.796,13.584,10.539,13.584L10.539,13.584z M10.539,6.818
		c-1.477,0-2.676,1.199-2.676,2.672c0,1.476,1.199,2.676,2.676,2.676c1.472,0,2.671-1.2,2.671-2.676
		C13.21,8.017,12.011,6.818,10.539,6.818L10.539,6.818z"/>
</g>
</svg>
