<?xml version="1.0" encoding="utf-8"?>
<!-- Generator: Adobe Illustrator 16.0.0, SVG Export Plug-In . SVG Version: 6.00 Build 0)  -->
<!DOCTYPE svg PUBLIC "-//W3C//DTD SVG 1.1//EN" "http://www.w3.org/Graphics/SVG/1.1/DTD/svg11.dtd">
<svg version="1.1" id="Layer_1" xmlns="http://www.w3.org/2000/svg" xmlns:xlink="http://www.w3.org/1999/xlink" x="0px" y="0px"
	 width="54.489px" height="54.293px" viewBox="0 0 54.489 54.293" enable-background="new 0 0 54.489 54.293" xml:space="preserve">
<path fill="#6D6D6D" d="M22.643,45.046C10.197,45.105,0.061,35.066,0,22.621S9.98,0.039,22.426-0.021
	c12.444-0.06,22.583,9.98,22.641,22.425c0.002,0.043,0.002,0.086,0.002,0.13C45.071,34.934,35.043,45.001,22.643,45.046z
	 M22.643,4.342C12.598,4.282,4.408,12.375,4.348,22.419c-0.06,10.044,8.034,18.235,18.078,18.294
	c10.045,0.059,18.235-8.033,18.295-18.077c0-0.035,0-0.069,0-0.103C40.743,12.522,32.655,4.384,22.643,4.342z"/>
<polygon fill="#6D6D6D" points="51.418,54.271 36.413,39.348 39.483,36.275 54.489,51.195 "/>
</svg>
