<?xml version="1.0" encoding="utf-8"?>
<!-- Generator: Adobe Illustrator 16.0.0, SVG Export Plug-In . SVG Version: 6.00 Build 0)  -->
<!DOCTYPE svg PUBLIC "-//W3C//DTD SVG 1.1//EN" "http://www.w3.org/Graphics/SVG/1.1/DTD/svg11.dtd">
<svg version="1.1" id="Layer_1" xmlns="http://www.w3.org/2000/svg" xmlns:xlink="http://www.w3.org/1999/xlink" x="0px" y="0px"
	 width="386.641px" height="294.238px" viewBox="0 0 386.641 294.238" enable-background="new 0 0 386.641 294.238"
	 xml:space="preserve">
<g>
	<path fill="#C5A067" d="M342.441,0H50.281C24.199,0,3,21.199,3,47.281v199.68c0,26.078,21.199,47.277,47.281,47.277h292.077
		c26.082,0,47.281-21.199,47.281-47.277V47.359C389.719,21.281,368.52,0,342.441,0L342.441,0z M368.121,246.961
		c0,14.16-11.521,25.683-25.681,25.683H50.281c-14.16,0-25.68-11.521-25.68-25.683V47.359c0-14.16,11.52-25.679,25.68-25.679
		h292.077c14.16,0,25.682,11.519,25.682,25.679v199.602H368.121z"/>
	<path fill="#C5A067" d="M246.84,144.641l94.559-84.802c4.402-4,4.803-10.801,0.803-15.28c-4-4.399-10.803-4.797-15.277-0.797
		L196.52,160.801l-25.44-22.723c-0.078-0.078-0.156-0.156-0.156-0.238c-0.563-0.559-1.121-1.039-1.762-1.52L65.641,43.68
		c-4.48-4-11.282-3.603-15.282,0.879c-4,4.479-3.597,11.28,0.879,15.28l95.685,85.52l-95.281,89.2
		c-4.321,4.082-4.563,10.883-0.48,15.279c2.159,2.238,5.039,3.44,7.918,3.44c2.641,0,5.28-0.961,7.362-2.883l96.72-90.478
		l26.237,23.438c2.082,1.841,4.642,2.72,7.204,2.72c2.56,0,5.199-0.957,7.199-2.798l26.961-24.159l96.16,91.358
		c2.078,2,4.797,2.961,7.438,2.961c2.879,0,5.682-1.121,7.842-3.362c4.082-4.314,3.922-11.199-0.398-15.277L246.84,144.641z"/>
</g>
</svg>
