<?xml version="1.0" encoding="utf-8"?>
<!-- Generator: Adobe Illustrator 16.0.0, SVG Export Plug-In . SVG Version: 6.00 Build 0)  -->
<!DOCTYPE svg PUBLIC "-//W3C//DTD SVG 1.1//EN" "http://www.w3.org/Graphics/SVG/1.1/DTD/svg11.dtd">
<svg version="1.1" id="Layer_1" xmlns="http://www.w3.org/2000/svg" xmlns:xlink="http://www.w3.org/1999/xlink" x="0px" y="0px"
	 width="326.333px" height="326.343px" viewBox="0 0 326.333 326.343" enable-background="new 0 0 326.333 326.343"
	 xml:space="preserve">
<g transform="translate(0,-952.36218)">
	<path fill="#FFFFFF" d="M7.584,952.373c-4.114,0.384-7.603,4.231-7.584,8.364v133.881c0.019,2.184,0.93,4.344,2.484,5.88
		c0,0,170.995,172.094,170.483,171.538c3.816,4.109,9.289,6.67,15.297,6.67c6.218,0,11.863-2.83,15.688-7.197
		c-0.496,0.572,74.711-74.604,91.528-91.393c3.086-3.117,3.079-8.762-0.03-11.863c-3.102-3.102-8.748-3.117-11.871-0.03
		c-16.826,16.788-91.506,91.542-92.176,92.312c-0.775,0.889-1.83,1.43-3.139,1.43c-1.266,0-2.229-0.467-3.004-1.311
		c-0.775-0.828-166.162-167.058-168.526-169.429V969.101H138.85c2.375,2.371,168.436,167.804,169.309,168.526
		c0.949,0.789,1.438,1.738,1.438,3.011c0,1.28-0.58,2.364-1.438,3.14c-3.252,2.943-3.529,8.582-0.587,11.827
		c2.943,3.252,8.582,3.538,11.835,0.595c4.223-3.816,6.926-9.455,6.926-15.562c0-6.248-2.83-11.938-7.188-15.688
		c0.067,0.075-171.011-170.092-171.011-170.092c-1.536-1.551-3.7-2.469-5.883-2.484H8.368
		C8.108,952.358,7.844,952.358,7.584,952.373z M58.573,985.844c-13.766,0-25.103,11.337-25.103,25.099
		c0,13.762,11.337,25.1,25.103,25.1c13.765,0,25.103-11.338,25.103-25.1C83.676,997.181,72.338,985.844,58.573,985.844z
		 M58.573,1002.571c4.72,0,8.368,3.651,8.368,8.371c0,4.721-3.647,8.371-8.368,8.371c-4.721,0-8.368-3.65-8.368-8.371
		C50.206,1006.222,53.853,1002.571,58.573,1002.571z M174.805,1048.463c-4.11,0.452-7.543,4.366-7.453,8.507v9.41
		c-16.505,3.787-29.288,18.384-29.288,36.604c0,10.931,6.316,19.437,13.468,24.06c7.148,4.623,14.925,6.686,21.437,8.891
		c6.986,2.364,13.791,4.523,17.916,7.189c4.119,2.664,5.752,4.479,5.752,10.072c0,12.438-9.192,20.914-20.922,20.914
		c-9.898,0-19.167-7.221-21.176-14.771c-1.129-4.245-6.019-7.076-10.265-5.947c-4.246,1.13-7.08,6.016-5.947,10.262
		c3.591,13.482,15.185,23.51,29.025,26.401v9.153c-0.061,4.426,3.945,8.492,8.363,8.492c4.42,0,8.433-4.066,8.365-8.492v-9.274
		c16.508-3.794,29.291-18.521,29.291-36.737c0-10.932-6.315-19.438-13.468-24.061c-7.151-4.623-14.921-6.82-21.44-9.02
		c-6.985-2.363-13.791-4.532-17.914-7.197c-4.118-2.657-5.751-4.344-5.751-9.937c0-12.437,9.192-20.913,20.917-20.913
		c9.9,0,19.175,7.091,21.178,14.642c1.129,4.246,6.021,7.084,10.268,5.955c4.246-1.129,7.077-6.022,5.947-10.27
		c-3.591-13.49-15.184-23.277-29.027-26.153v-9.274C184.185,1052.22,179.517,1047.951,174.805,1048.463z"/>
</g>
</svg>
