<?xml version="1.0" encoding="utf-8"?>
<!-- Generator: Adobe Illustrator 16.0.0, SVG Export Plug-In . SVG Version: 6.00 Build 0)  -->
<!DOCTYPE svg PUBLIC "-//W3C//DTD SVG 1.1//EN" "http://www.w3.org/Graphics/SVG/1.1/DTD/svg11.dtd">
<svg version="1.1" id="Layer_1" xmlns="http://www.w3.org/2000/svg" xmlns:xlink="http://www.w3.org/1999/xlink" x="0px" y="0px"
	 width="364.008px" height="348.179px" viewBox="0 0 364.008 348.179" enable-background="new 0 0 364.008 348.179"
	 xml:space="preserve">
<g>
	<g>
		<g>
			<g>
				<path fill="#FFFFFF" d="M182,348.179c-47.986,0-87.046-39.047-87.046-87.047s39.06-87.046,87.046-87.046
					c47.986,0,87.047,39.046,87.047,87.046S229.986,348.179,182,348.179z M182,189.916c-39.265,0-71.217,31.951-71.217,71.217
					s31.952,71.217,71.217,71.217c39.266,0,71.218-31.951,71.218-71.217S221.266,189.916,182,189.916z"/>
			</g>
			<path fill="#FFFFFF" d="M166.178,300.699c-2.029,0-4.06-0.779-5.604-2.312l-31.658-31.658c-3.082-3.082-3.082-8.099,0-11.181
				c3.09-3.09,8.106-3.09,11.195,0l26.067,26.047l49.791-49.791c3.082-3.09,8.1-3.09,11.182,0c3.09,3.089,3.09,8.105,0,11.195
				l-55.388,55.388C170.225,299.919,168.201,300.699,166.178,300.699z"/>
		</g>
	</g>
	<g>
		<path fill="#FFFFFF" d="M324.436,253.218h-31.651c-4.367,0-7.907-3.547-7.907-7.908c0-4.374,3.54-7.914,7.907-7.914h31.651
			c13.096,0,23.744-10.654,23.744-23.744V39.559c0-13.081-10.648-23.736-23.744-23.736H39.559
			c-13.081,0-23.736,10.655-23.736,23.736v174.093c0,13.09,10.655,23.744,23.736,23.744h31.658c4.368,0,7.915,3.54,7.915,7.914
			c0,4.361-3.547,7.908-7.915,7.908H39.559C17.743,253.218,0,235.46,0,213.651V39.559C0,17.757,17.743,0,39.559,0h284.876
			c21.83,0,39.572,17.757,39.572,39.559v174.093C364.008,235.46,346.266,253.218,324.436,253.218z"/>
		<path fill="#FFFFFF" d="M182,142.592c-8.454,0-16.888-2.591-24.105-7.799l-122.97-88.81c-3.54-2.556-4.333-7.511-1.77-11.059
			c2.563-3.561,7.497-4.319,11.045-1.77l122.976,88.803c8.981,6.507,20.682,6.507,29.67,0l122.969-88.803
			c3.549-2.563,8.49-1.771,11.045,1.77c2.57,3.548,1.765,8.503-1.771,11.045L206.12,134.772
			C198.889,139.98,190.448,142.592,182,142.592z"/>
		<path fill="#FFFFFF" d="M39.559,221.566c-2.022,0-4.046-0.779-5.598-2.311c-3.082-3.09-3.082-8.105,0-11.188l79.132-79.132
			c3.083-3.089,8.1-3.089,11.188,0c3.09,3.083,3.09,8.1,0,11.188l-79.132,79.132C43.619,220.787,41.589,221.566,39.559,221.566z"/>
		<path fill="#FFFFFF" d="M324.436,221.566c-2.022,0-4.047-0.779-5.604-2.311l-79.132-79.132c-3.082-3.089-3.082-8.105,0-11.188
			c3.09-3.089,8.105-3.089,11.195,0l79.131,79.132c3.091,3.083,3.091,8.101,0,11.188
			C328.488,220.787,326.465,221.566,324.436,221.566z"/>
	</g>
</g>
</svg>
