<?xml version="1.0" encoding="utf-8"?>
<!-- Generator: Adobe Illustrator 16.0.0, SVG Export Plug-In . SVG Version: 6.00 Build 0)  -->
<!DOCTYPE svg PUBLIC "-//W3C//DTD SVG 1.1//EN" "http://www.w3.org/Graphics/SVG/1.1/DTD/svg11.dtd">
<svg version="1.1" id="Layer_1" xmlns="http://www.w3.org/2000/svg" xmlns:xlink="http://www.w3.org/1999/xlink" x="0px" y="0px"
	 width="490.946px" height="374.692px" viewBox="0 0 490.946 374.692" enable-background="new 0 0 490.946 374.692"
	 xml:space="preserve">
<path fill="#FFFFFF" d="M420.622,158.424c-6.918-2.771-14.035-4.809-21.297-6.152V18.75c0-10.342-8.423-18.75-18.744-18.75H50.955
	C40.618,0,32.206,8.408,32.206,18.75v236.793c0,2.752,0.621,5.342,1.685,7.679H5.533c-1.63,0-3.188,0.725-4.233,1.983
	c-1.055,1.239-1.503,2.896-1.213,4.508l6.606,37.48c0.461,2.635,2.766,4.563,5.451,4.563h265.974
	c18.283,37.201,56.461,62.936,100.643,62.936c61.857,0,112.188-50.313,112.188-112.168
	C490.946,216.478,463.327,175.611,420.622,158.424z M43.285,18.754c0-4.233,3.446-7.67,7.67-7.67h329.606
	c4.238,0,7.679,3.441,7.679,7.67v132.05c-3.133-0.258-6.303-0.448-9.489-0.448c-56.515,0-104.371,42.243-111.326,98.246
	c-0.563,4.577-0.853,9.259-0.853,13.949c0,0.218,0.037,0.436,0.037,0.671H50.955c-4.229,0-7.67-3.45-7.67-7.661V18.754
	L43.285,18.754z M16.793,300.711l-4.654-26.405h255.066c0.959,9.182,3.15,18.002,6.203,26.405H16.793z M378.749,363.647
	c-55.744,0-101.11-45.352-101.11-101.096c0-4.219,0.271-8.452,0.778-12.577c6.248-50.479,49.379-88.539,100.332-88.539
	c13.031,0,25.719,2.437,37.707,7.267c38.514,15.485,63.406,52.327,63.406,93.851C479.872,318.295,434.512,363.647,378.749,363.647z
	 M250.362,281.965h-69.201c-3.047,0-5.533,2.481-5.533,5.543c0,3.061,2.481,5.541,5.533,5.541h69.201
	c3.063,0,5.542-2.471,5.542-5.541C255.887,284.447,253.424,281.965,250.362,281.965z M215.758,37.073
	c4.541,0,8.245-3.694,8.245-8.245c0-4.551-3.694-8.25-8.245-8.25c-4.542,0-8.245,3.695-8.245,8.25
	C207.513,33.374,211.212,37.073,215.758,37.073z M444.219,257.01H433.1c-3.061,0-5.543,2.472-5.543,5.531
	c0,3.063,2.473,5.551,5.543,5.551h11.119c3.07,0,5.551-2.479,5.551-5.551C449.77,259.481,447.299,257.01,444.219,257.01z
	 M421.092,297.053c-2.164-2.174-5.66-2.174-7.824,0c-2.174,2.173-2.174,5.668,0,7.832l7.861,7.869
	c1.086,1.068,2.498,1.611,3.91,1.611c1.414,0,2.836-0.543,3.912-1.611c2.164-2.174,2.164-5.668,0-7.834L421.092,297.053z
	 M378.749,311.342c-3.061,0-5.541,2.48-5.541,5.541v11.146c0,3.053,2.48,5.533,5.541,5.533c3.063,0,5.543-2.473,5.543-5.533v-11.146
	C384.292,313.823,381.819,311.342,378.749,311.342z M378.749,235.562c-14.787,0-26.83,12.039-26.83,26.827
	c0,14.787,12.043,26.82,26.83,26.82c14.789,0,26.822-12.043,26.822-26.82C405.571,247.601,393.545,235.562,378.749,235.562z
	 M378.749,278.145c-8.691,0-15.756-7.063-15.756-15.756c0-8.698,7.063-15.766,15.756-15.766c8.693,0,15.758,7.066,15.758,15.766
	C394.506,271.081,387.442,278.145,378.749,278.145z M329.941,262.542c0-3.051-2.463-5.531-5.532-5.531H313.27
	c-3.07,0-5.533,2.472-5.533,5.531c0,3.063,2.463,5.551,5.533,5.551h11.139C327.479,268.075,329.941,265.604,329.941,262.542z
	 M417.18,229.648c1.412,0,2.844-0.538,3.912-1.62l7.869-7.869c2.164-2.164,2.164-5.664,0-7.828c-2.164-2.16-5.668-2.16-7.832,0
	l-7.861,7.869c-2.174,2.174-2.174,5.668,0,7.832C414.356,229.11,415.768,229.648,417.18,229.648z M336.37,212.331
	c-2.164-2.16-5.649-2.16-7.822,0c-2.155,2.164-2.155,5.664,0,7.828l11.799,11.785c1.076,1.088,2.49,1.621,3.902,1.621
	s2.826-0.533,3.912-1.621c2.164-2.164,2.164-5.65,0-7.824L336.37,212.331z M378.749,219.271c3.063,0,5.543-2.478,5.543-5.533
	v-16.675c0-3.048-2.473-5.533-5.543-5.533c-3.061,0-5.541,2.469-5.541,5.533v16.675
	C373.226,216.786,375.688,219.271,378.749,219.271z M336.407,297.053l-7.859,7.867c-2.174,2.166-2.174,5.66,0,7.834
	c1.086,1.068,2.498,1.611,3.912,1.611c1.412,0,2.824-0.543,3.901-1.611l7.869-7.869c2.164-2.164,2.164-5.678,0-7.832
	C342.075,294.888,338.581,294.888,336.407,297.053z"/>
</svg>
