<?xml version="1.0" encoding="utf-8"?>
<!-- Generator: Adobe Illustrator 16.0.0, SVG Export Plug-In . SVG Version: 6.00 Build 0)  -->
<!DOCTYPE svg PUBLIC "-//W3C//DTD SVG 1.1//EN" "http://www.w3.org/Graphics/SVG/1.1/DTD/svg11.dtd">
<svg version="1.1" id="Layer_1" xmlns="http://www.w3.org/2000/svg" xmlns:xlink="http://www.w3.org/1999/xlink" x="0px" y="0px"
	 width="310.367px" height="318.007px" viewBox="0 0 310.367 318.007" enable-background="new 0 0 310.367 318.007"
	 xml:space="preserve">
<path fill="#FFFFFF" d="M254.818,206.91c-30.631,0-55.549,24.922-55.549,55.555c0,30.619,24.916,55.543,55.549,55.543
	c30.638,0,55.549-24.924,55.549-55.543C310.367,231.832,285.456,206.91,254.818,206.91z M254.818,304.494
	c-23.174,0-42.03-18.851-42.03-42.029c0-23.18,18.856-42.036,42.03-42.036s42.035,18.856,42.035,42.036
	S277.992,304.494,254.818,304.494z"/>
<path fill="#FFFFFF" d="M193.148,103.466l-4.896,0.096l-1.463,6.407c-0.203,1.057-0.406,2.12-0.752,3.183
	c-2.627,8.431-7.117,16.851-13.077,24.326c-0.906,1.158-1.863,2.269-2.878,3.428c-3.833,4.395-8.174,9.338-9.435,16.253
	c-4.084,23.317,8.324,39.217,36.901,47.189c4.132,1.164,8.229,2.37,12.259,3.685c4.043-3.38,8.474-6.306,13.221-8.683
	c-7.111-2.771-14.588-5.039-22.111-7.165c-22.457-6.258-30.787-16.098-27.855-32.853c0.658-3.434,3.481-6.664,6.516-10.151
	c1.158-1.308,2.27-2.567,3.277-3.833c6.922-8.73,12.164-18.522,15.244-28.411c0.155-0.459,0.258-0.961,0.406-1.469
	c5.602-1.158,9.745-4.239,12.366-9.136c3.887-7.368,5.905-15.644,5.905-24.678c0-5.249-1.815-11.71-9.793-14.283
	c0.103-0.609,0.203-1.212,0.258-1.815c1.917-14.635-0.908-27.15-8.377-37.146C185.589,10.646,161.866,0,135.417,0
	C108.924,0,85.15,10.646,71.876,28.41c-7.518,9.995-10.342,22.511-8.431,37.199c0.099,0.604,0.203,1.213,0.254,1.768
	c-7.921,2.621-9.742,9.028-9.742,14.283c0,9.028,1.971,17.315,5.906,24.685c2.573,4.89,6.714,7.971,12.366,9.136
	c0.099,0.501,0.254,0.955,0.353,1.409c3.081,9.947,8.38,19.788,15.244,28.416c1.06,1.308,2.173,2.573,3.284,3.887
	c3.027,3.487,5.905,6.718,6.511,10.151c2.929,16.755-5.404,26.595-27.807,32.853c-24.329,6.76-55.567,19.836-66.321,43.66
	c-3.935,8.635-3.636,18.421-3.329,27.407l0.098,2.628c0.051,1.254,0.051,2.975,0.051,4.538c-0.051,8.323,6.312,12.163,10.148,14.438
	l1.26,0.752c4.288,2.676,9.285,5.709,14.638,8.127c31.292,14.086,68.39,21.502,107.348,21.502c0,0,0,0,0.054,0
	c22.763,0,45.267-2.473,66.876-7.471c-2.932-3.486-5.5-7.219-7.721-11.208c-19.18,4.037-39.012,6.056-59.152,6.056
	c-0.051,0-0.051,0-0.051,0c-37.197,0-72.528-7.01-102.153-20.385c-4.595-2.072-9.085-4.802-12.975-7.172
	c-0.454-0.354-1.009-0.656-1.713-1.059c-3.434-2.064-3.938-2.627-3.938-3.533c0-1.811,0-3.68-0.051-5.04l-0.167-2.938
	c-0.2-7.625-0.454-15.494,2.221-21.508c9.234-20.338,40.427-31.693,58.242-36.639c28.565-7.979,40.932-23.872,36.844-47.243
	c-1.212-6.867-5.601-11.811-9.437-16.205c-0.958-1.159-1.971-2.27-2.878-3.428c-5.905-7.476-10.446-15.896-13.07-24.38
	c-0.299-1.009-0.556-2.072-0.755-3.135l-1.415-6.407l-4.947-0.102c-4.595-0.096-5.804-1.66-6.559-3.075
	c-2.929-5.499-4.392-11.757-4.392-18.725c0-1.463,0.254-1.917,0.254-1.917s0.501-0.454,2.526-0.705
	c0.755-0.095,1.415-0.256,2.12-0.405l6.714-1.26l-1.463-8.784c-0.298-1.612-0.555-3.177-0.755-4.646
	c-1.516-11.457,0.454-20.586,6.001-27.96C92.871,21.34,112.853,12.61,135.415,12.61c22.508,0,42.442,8.729,53.346,23.365
	c5.505,7.368,7.476,16.504,5.96,27.914c-0.203,1.511-0.455,3.075-0.753,4.688l-1.469,8.783l6.717,1.261
	c0.705,0.148,1.415,0.304,2.173,0.405c1.965,0.257,2.473,0.705,2.473,0.705s0.305,0.46,0.305,1.917
	c0,6.962-1.518,13.22-4.449,18.725C198.947,101.794,197.741,103.358,193.148,103.466z"/>
<path fill="#FFFFFF" d="M135.002,292.201l-0.49-0.049l0.003-0.02c-1.248-0.102-2.171-0.549-2.902-1.248l-4.335-4.315
	c-3.974-3.959-9.073-9.04-12.252-12.188c-1.26-1.254-1.773-2.697-1.562-4.43c1.152-8.861,2.547-17.807,3.899-26.464l1.651-10.665
	c0.445-2.984,0.994-5.947,1.543-8.921c0.576-3.128,1.155-6.251,1.612-9.409c0.86-5.937,0.991-10.391-0.89-15.598l-1.815-4.914
	c-0.406-1.128-0.239-2.348,0.436-3.302c0.657-0.943,1.74-1.505,2.881-1.505h24.267c1.146,0,2.224,0.562,2.881,1.498
	c0.669,0.949,0.842,2.181,0.448,3.272l-1.83,4.985c-1.878,5.183-1.747,9.638-0.887,15.572c0.451,3.146,1.036,6.281,1.618,9.404
	c0.549,2.973,1.104,5.94,1.543,8.928l1.687,10.901c1.337,8.575,2.72,17.448,3.857,26.201c0.218,1.731-0.287,3.177-1.547,4.442
	c-3.612,3.564-9.691,9.625-13.787,13.709l-2.779,2.771C137.331,291.729,136.197,292.201,135.002,292.201z M124.941,194.238
	l1.078,2.926c2.245,6.205,2.099,11.508,1.149,18.058c-0.46,3.225-1.051,6.425-1.648,9.612c-0.538,2.914-1.078,5.822-1.52,8.754
	l-1.648,10.688c-1.35,8.622-2.738,17.537-3.878,26.31c3.281,3.36,8.396,8.455,12.372,12.412l4.075,4.062l2.55-2.55
	c4.102-4.084,10.184-10.145,13.793-13.709c-1.033-8.915-2.406-17.746-3.738-26.291l-1.687-10.922
	c-0.438-2.942-0.979-5.846-1.522-8.754c-0.597-3.199-1.188-6.395-1.651-9.612c-0.946-6.556-1.087-11.858,1.146-18.032l1.089-2.949
	h-19.96V194.238z"/>
<path fill="#FFFFFF" d="M276.277,260.714h-18.104v-18.098c0-1.715-1.391-3.105-3.104-3.105c-1.709,0-3.104,1.392-3.104,3.105v18.098
	h-18.099c-1.715,0-3.1,1.396-3.1,3.104s1.385,3.104,3.1,3.104h18.099v18.104c0,1.708,1.396,3.095,3.104,3.095
	c1.714,0,3.104-1.387,3.104-3.095v-18.104h18.104c1.709,0,3.094-1.396,3.094-3.104S277.986,260.714,276.277,260.714z"/>
</svg>
